<svg xmlns="http://www.w3.org/2000/svg" viewBox="0 0 160 110">
  <path d="M 36.32346343994141 39.28921890258789 C 35.74825286865234 39.05247497558594 35.24147033691406 38.71955871582031 34.80404663085938 38.28860092163086 C 34.36570358276367 37.85951232910156 34.01337051391602 37.34718322753906 33.74888229370117 36.75810241699219 C 33.48346710205078 36.16716766357422 33.35122299194336 35.52167510986328 33.35122299194336 34.82160949707031 C 33.35122299194336 34.12248611450195 33.48162078857422 33.48160552978516 33.74240493774414 32.89807510375977 C 34.00319290161133 32.31639099121094 34.35368728637695 31.81331062316895 34.79202651977539 31.39161682128906 C 35.23037338256836 30.96990966796875 35.73807525634766 30.6397590637207 36.31698989868164 30.4020938873291 C 36.89590072631836 30.16627311706543 37.50163269042969 30.0469799041748 38.13787841796875 30.0469799041748 C 38.49946594238281 30.0469799041748 38.85550308227539 30.08582305908203 39.20507431030273 30.16165351867676 C 39.55464172363281 30.23841667175293 39.92270278930664 30.35585594177246 40.30833053588867 30.5176887512207 L 40.30833053588867 33.33919143676758 C 39.76179122924805 32.67150497436523 39.08669662475586 32.33858871459961 38.28214263916016 32.33858871459961 C 37.92887878417969 32.33858871459961 37.60150527954102 32.40331268310547 37.30002212524414 32.53185653686523 C 36.9985466003418 32.6604118347168 36.7396125793457 32.83427047729492 36.52136611938477 33.05529022216797 C 36.30496597290039 33.27630996704102 36.13480758666992 33.54080200195312 36.00996398925781 33.84596633911133 C 35.88511276245117 34.15115737915039 35.82315826416016 34.48036575317383 35.82315826416016 34.83456802368164 C 35.82315826416016 35.19614410400391 35.88511276245117 35.52999496459961 36.00996398925781 35.83517074584961 C 36.13480758666992 36.14035034179688 36.30681610107422 36.40668487548828 36.52783966064453 36.63140487670898 C 36.74885940551758 36.85520935058594 37.00779724121094 37.03275680541992 37.30557632446289 37.16129684448242 C 37.60243225097656 37.28984069824219 37.92425537109375 37.35459136962891 38.27104949951172 37.35459136962891 C 39.02566909790039 37.35459136962891 39.70537567138672 37.03275680541992 40.30833053588867 36.39004135131836 L 40.30833053588867 39.18656921386719 L 40.06696319580078 39.27072906494141 C 39.70537567138672 39.39927291870117 39.36783599853516 39.49451446533203 39.0543327331543 39.55463027954102 C 38.73991012573242 39.61567306518555 38.4310302734375 39.645263671875 38.12585067749023 39.645263671875 C 37.49885559082031 39.645263671875 36.89775085449219 39.52595901489258 36.32346343994141 39.28921890258789 Z M 30.52879333496094 39.39279937744141 L 29.98687744140625 37.81233978271484 L 26.61143493652344 37.81233978271484 L 26.06766510009766 39.39279937744141 L 23.54857063293457 39.39279937744141 L 27.00908851623535 30.30036735534668 L 29.58922386169434 30.30036735534668 L 33.04974365234375 39.39279937744141 L 30.52879333496094 39.39279937744141 Z M 27.23843002319336 36.01550674438477 L 29.35988235473633 36.01550674438477 L 28.29823112487793 32.98962783813477 L 27.23843002319336 36.01550674438477 Z M 16.746826171875 39.39279937744141 L 16.746826171875 30.30036735534668 L 20.50882530212402 30.30036735534668 C 21.52977752685547 30.30036735534668 22.31121253967285 30.56578254699707 22.85498237609863 31.09567642211914 C 23.39690780639648 31.62742614746094 23.66693687438965 32.37464141845703 23.66693687438965 33.33919143676758 C 23.66693687438965 34.30374145507812 23.39690780639648 35.05096817016602 22.85498237609863 35.58270645141602 C 22.31121253967285 36.11260223388672 21.52977752685547 36.37801361083984 20.50882530212402 36.37801361083984 L 19.11055564880371 36.37801361083984 L 19.11055564880371 39.39279937744141 L 16.746826171875 39.39279937744141 Z M 19.11055564880371 34.47298049926758 L 19.89291572570801 34.47298049926758 C 20.76220703125 34.47298049926758 21.1959285736084 34.0947380065918 21.1959285736084 33.33919143676758 C 21.1959285736084 32.58364868164062 20.76220703125 32.20541381835938 19.89291572570801 32.20541381835938 L 19.11055564880371 32.20541381835938 L 19.11055564880371 34.47298049926758 Z M 42.88753890991211 39.39186477661133 L 42.88753890991211 32.30158615112305 L 40.94642639160156 32.30158615112305 L 40.94642639160156 30.30036735534668 L 47.19238662719727 30.30036735534668 L 47.19238662719727 32.30158615112305 L 45.25127410888672 32.30158615112305 L 45.25127410888672 39.39186477661133 L 42.88753890991211 39.39186477661133 Z M 12.90066719055176 39.39186477661133 L 12.1173734664917 34.15855026245117 L 9.970965385437012 39.39186477661133 L 9.030457496643066 39.39186477661133 L 6.993181705474854 34.15855026245117 L 6.209887981414795 39.39186477661133 L 3.858173370361328 39.39186477661133 L 5.400709629058838 30.30036735534668 L 7.740398406982422 30.30036735534668 L 9.561285018920898 35.14714050292969 L 11.37015628814697 30.30036735534668 L 13.70892333984375 30.30036735534668 L 15.25238132476807 39.39186477661133 L 12.90066719055176 39.39186477661133 Z M 0 39.39186477661133 L 0 30.29944610595703 L 2.362807750701904 30.29944610595703 L 2.362807750701904 39.39186477661133 L 0 39.39186477661133 Z M 51.91338348388672 24.26526069641113 C 51.33816528320312 24.02759742736816 50.83139038085938 23.69467926025391 50.39397048950195 23.26465606689453 C 49.95655059814453 22.83463287353516 49.60512924194336 22.32322692871094 49.33879852294922 21.73321342468262 C 49.07338714599609 21.14229011535645 48.94114685058594 20.49678802490234 48.94114685058594 19.79765319824219 C 48.94114685058594 19.09760665893555 49.07246017456055 18.4576587677002 49.33232116699219 17.87411880493164 C 49.59403610229492 17.29243278503418 49.94359970092773 16.78843307495117 50.38287353515625 16.36766052246094 C 50.82028961181641 15.94503211975098 51.32892227172852 15.61580276489258 51.90782928466797 15.37813758850098 C 52.48581695556641 15.14139556884766 53.09339904785156 15.02210235595703 53.7277946472168 15.02210235595703 C 54.09030914306641 15.02210235595703 54.44542694091797 15.06186676025391 54.79499435424805 15.13769721984863 C 55.14548873901367 15.21353912353516 55.51262283325195 15.33189964294434 55.89825057983398 15.49281120300293 L 55.89825057983398 18.3143138885498 C 55.35171127319336 17.64662551879883 54.67662048339844 17.3137092590332 53.87298583984375 17.3137092590332 C 53.518798828125 17.3137092590332 53.19142532348633 17.3784351348877 52.89087295532227 17.50697898864746 C 52.58847045898438 17.63552093505859 52.32953262329102 17.8103141784668 52.11220550537109 18.03133201599121 C 51.89488220214844 18.25235176086426 51.72472763061523 18.51591110229492 51.59988021850586 18.82108879089355 C 51.47503662109375 19.12626838684082 51.4130744934082 19.45641899108887 51.4130744934082 19.80967903137207 C 51.4130744934082 20.17126655578613 51.47503662109375 20.5051155090332 51.59988021850586 20.81029510498047 C 51.72472763061523 21.1154727935791 51.89673614501953 21.38180732727051 52.11775588989258 21.60652542114258 C 52.33970260620117 21.83125305175781 52.5986442565918 22.00881004333496 52.89550018310547 22.13735198974609 C 53.19327545166016 22.26589584350586 53.5141716003418 22.33063316345215 53.8609619140625 22.33063316345215 C 54.61558532714844 22.33063316345215 55.29529571533203 22.00881004333496 55.89825057983398 21.36515235900879 L 55.89825057983398 24.16261291503906 L 55.65688705444336 24.24677276611328 C 55.29529571533203 24.37531471252441 54.9577522277832 24.46963500976562 54.64517974853516 24.53067588806152 C 54.33075714111328 24.59079360961914 54.02187728881836 24.62038612365723 53.71577453613281 24.62038612365723 C 53.08877563476562 24.62038612365723 52.48766708374023 24.5010814666748 51.91338348388672 24.26526069641113 Z M 40.78459548950195 24.2541675567627 C 40.16961288452148 24.00817489624023 39.64064025878906 23.66878509521484 39.1985969543457 23.234130859375 C 38.75748062133789 22.79948806762695 38.4116096496582 22.2927131652832 38.16192245483398 21.708251953125 C 37.91222763061523 21.12748718261719 37.78923797607422 20.49678802490234 37.78923797607422 19.82170486450195 C 37.78923797607422 19.14661026000977 37.91222763061523 18.51776504516602 38.16192245483398 17.93515777587891 C 38.4116096496582 17.35254096984863 38.75748062133789 16.84392166137695 39.1985969543457 16.40926742553711 C 39.64064025878906 15.97647953033447 40.16961288452148 15.63614559173584 40.78459548950195 15.39016342163086 C 41.39957046508789 15.14602565765381 42.07743453979492 15.02395629882812 42.81725692749023 15.02395629882812 C 43.54783248901367 15.02395629882812 44.22384643554688 15.14602565765381 44.84252166748047 15.39016342163086 C 45.46027755737305 15.63614559173584 45.99386978149414 15.97647953033447 46.43961334228516 16.40926742553711 C 46.88628005981445 16.84392166137695 47.23400115966797 17.35254096984863 47.48276901245117 17.93515777587891 C 47.73246002197266 18.51776504516602 47.8572998046875 19.14661026000977 47.8572998046875 19.82170486450195 C 47.8572998046875 20.49678802490234 47.73246002197266 21.12748718261719 47.48276901245117 21.708251953125 C 47.23400115966797 22.2927131652832 46.88628005981445 22.79948806762695 46.43961334228516 23.234130859375 C 45.99386978149414 23.66878509521484 45.46027755737305 24.00817489624023 44.84252166748047 24.2541675567627 C 44.22384643554688 24.49830627441406 43.54783248901367 24.62038612365723 42.81725692749023 24.62038612365723 C 42.07743453979492 24.62038612365723 41.39957046508789 24.49830627441406 40.78459548950195 24.2541675567627 Z M 41.83329772949219 17.50051498413086 C 41.5244140625 17.62628173828125 41.25253295898438 17.80106353759766 41.01948928833008 18.02579116821289 C 40.78644180297852 18.25143051147461 40.60149002075195 18.51591110229492 40.46554565429688 18.82108879089355 C 40.3296012878418 19.12720108032227 40.26024627685547 19.46011734008789 40.26024627685547 19.82170486450195 C 40.26024627685547 20.1842155456543 40.3296012878418 20.51806449890137 40.46554565429688 20.8232421875 C 40.60149002075195 21.12934112548828 40.78644180297852 21.39382362365723 41.01948928833008 21.61947250366211 C 41.25253295898438 21.84419059753418 41.5244140625 22.01898193359375 41.83329772949219 22.14289474487305 C 42.14401626586914 22.26773834228516 42.47046279907227 22.33063316345215 42.81725692749023 22.33063316345215 C 43.16220474243164 22.33063316345215 43.48957443237305 22.26773834228516 43.79936981201172 22.14289474487305 C 44.10825347900391 22.01898193359375 44.38198471069336 21.84419059753418 44.61872482299805 21.61947250366211 C 44.85639572143555 21.39382362365723 45.04227447509766 21.12934112548828 45.17914199829102 20.8232421875 C 45.31693267822266 20.51806449890137 45.38444900512695 20.1842155456543 45.38444900512695 19.82170486450195 C 45.38444900512695 19.46011734008789 45.31693267822266 19.12720108032227 45.17914199829102 18.82108879089355 C 45.04227447509766 18.51591110229492 44.85639572143555 18.25143051147461 44.61872482299805 18.02579116821289 C 44.38198471069336 17.80106353759766 44.10825347900391 17.62628173828125 43.79936981201172 17.50051498413086 C 43.48957443237305 17.3765811920166 43.16220474243164 17.3137092590332 42.81725692749023 17.3137092590332 C 42.47046279907227 17.3137092590332 42.14401626586914 17.3765811920166 41.83329772949219 17.50051498413086 Z M 29.99982070922852 23.59665107727051 L 31.01246070861816 21.69160652160645 C 31.36572074890137 22.00417900085449 31.71528816223145 22.23814582824707 32.06208038330078 22.3907299041748 C 32.40702819824219 22.5433349609375 32.74826812744141 22.61916542053223 33.0858154296875 22.61916542053223 C 33.47144317626953 22.61916542053223 33.75904846191406 22.53130912780762 33.94863128662109 22.35375213623047 C 34.13728713989258 22.17711639404297 34.23160552978516 21.9764404296875 34.23160552978516 21.75171279907227 C 34.23160552978516 21.61485290527344 34.20756530761719 21.49740409851074 34.15855026245117 21.39567756652832 C 34.11046600341797 21.29579544067383 34.03001022338867 21.20332908630371 33.91810989379883 21.11917114257812 C 33.8052864074707 21.03316879272461 33.65917205810547 20.95548248291016 33.4779167175293 20.88335037231445 C 33.29666137695312 20.81029510498047 33.07748794555664 20.73076629638672 32.82132339477539 20.64198684692383 C 32.51614761352539 20.54581260681152 32.21559524536133 20.43945693969727 31.92336463928223 20.32292938232422 C 31.62928009033203 20.20641136169434 31.36849784851074 20.05104064941406 31.13915061950684 19.8577709197998 C 30.9098072052002 19.66633415222168 30.72485542297363 19.42219543457031 30.58428192138672 19.12812232971191 C 30.44371223449707 18.83589172363281 30.37343406677246 18.46413230895996 30.37343406677246 18.01376533508301 C 30.37343406677246 17.56338882446289 30.44741630554199 17.15557289123535 30.5963077545166 16.7902774810791 C 30.74427223205566 16.42405891418457 30.95419692993164 16.11056327819824 31.22330856323242 15.84978008270264 C 31.4924144744873 15.58806419372559 31.82256126403809 15.38554382324219 32.21189117431641 15.24035549163818 C 32.60214996337891 15.0951566696167 33.03772735595703 15.02395629882812 33.52045059204102 15.02395629882812 C 33.9708251953125 15.02395629882812 34.44061279296875 15.08498573303223 34.93074798583984 15.2107629776001 C 35.42087936401367 15.33467578887939 35.89158630371094 15.51778507232666 36.34103393554688 15.75914669036865 L 35.40145492553711 17.60408592224121 C 35.14437103271484 17.39509201049805 34.8863525390625 17.23972129821777 34.62926864624023 17.13891792297363 C 34.3721809387207 17.03811264038086 34.12248611450195 16.98910903930664 33.88204956054688 16.98910903930664 C 33.5759391784668 16.98910903930664 33.32718276977539 17.06123161315918 33.13482284545898 17.20643043518066 C 32.94154357910156 17.3506965637207 32.84444046020508 17.54026985168457 32.84444046020508 17.77239227294922 C 32.84444046020508 17.93330383300781 32.89252853393555 18.06647682189941 32.98963928222656 18.17004776000977 C 33.0858154296875 18.27454948425293 33.21250152587891 18.36518287658691 33.36971664428711 18.44193458557129 C 33.52693176269531 18.51776504516602 33.70263290405273 18.58526802062988 33.89961624145508 18.64075660705566 C 34.09751892089844 18.69717788696289 34.29172515869141 18.75728416442871 34.48500442504883 18.82108879089355 C 35.25626373291016 19.07909774780273 35.82130813598633 19.42219543457031 36.17919158935547 19.85314178466797 C 36.53616333007812 20.2822437286377 36.71556854248047 20.84358596801758 36.71556854248047 21.53439140319824 C 36.71556854248047 22.0004825592041 36.63696670532227 22.42310905456543 36.47975158691406 22.79948806762695 C 36.32346343994141 23.17772102355957 36.09503936767578 23.50139999389648 35.79263687133789 23.77051162719727 C 35.49115753173828 24.0405445098877 35.12124633789062 24.24954795837402 34.6838264465332 24.39751243591309 C 34.24641036987305 24.5463981628418 33.74980545043945 24.62038612365723 33.1949348449707 24.62038612365723 C 32.04542922973633 24.62038612365723 30.98008728027344 24.27914047241211 29.99982070922852 23.59665107727051 Z M 9.194145202636719 24.2541675567627 C 8.579179763793945 24.00817489624023 8.050206184387207 23.66878509521484 7.608157634735107 23.234130859375 C 7.167030334472656 22.79948806762695 6.820244312286377 22.2927131652832 6.571475505828857 21.708251953125 C 6.321785449981689 21.12748718261719 6.197862148284912 20.49678802490234 6.197862148284912 19.82170486450195 C 6.197862148284912 19.14661026000977 6.321785449981689 18.51776504516602 6.571475505828857 17.93515777587891 C 6.820244312286377 17.35254096984863 7.167030334472656 16.84392166137695 7.608157634735107 16.40926742553711 C 8.050206184387207 15.97647953033447 8.579179763793945 15.63614559173584 9.194145202636719 15.39016342163086 C 9.809131622314453 15.14602565765381 10.4869909286499 15.02395629882812 11.2268123626709 15.02395629882812 C 11.95739364624023 15.02395629882812 12.63247776031494 15.14602565765381 13.25208377838135 15.39016342163086 C 13.86983585357666 15.63614559173584 14.40342807769775 15.97647953033447 14.84917545318604 16.40926742553711 C 15.29584407806396 16.84392166137695 15.64264011383057 17.35254096984863 15.89232063293457 17.93515777587891 C 16.14108848571777 18.51776504516602 16.26685523986816 19.14661026000977 16.26685523986816 19.82170486450195 C 16.26685523986816 20.49678802490234 16.14108848571777 21.12748718261719 15.89232063293457 21.708251953125 C 15.64264011383057 22.2927131652832 15.29584407806396 22.79948806762695 14.84917545318604 23.234130859375 C 14.40342807769775 23.66878509521484 13.86983585357666 24.00817489624023 13.25208377838135 24.2541675567627 C 12.63247776031494 24.49830627441406 11.95739364624023 24.62038612365723 11.2268123626709 24.62038612365723 C 10.4869909286499 24.62038612365723 9.809131622314453 24.49830627441406 9.194145202636719 24.2541675567627 Z M 10.24285316467285 17.50051498413086 C 9.933977127075195 17.62628173828125 9.662089347839355 17.80106353759766 9.429044723510742 18.02579116821289 C 9.195999145507812 18.25143051147461 9.011046409606934 18.51591110229492 8.874176025390625 18.82108879089355 C 8.73731517791748 19.12720108032227 8.669801712036133 19.46011734008789 8.669801712036133 19.82170486450195 C 8.669801712036133 20.1842155456543 8.73731517791748 20.51806449890137 8.874176025390625 20.8232421875 C 9.011046409606934 21.12934112548828 9.195999145507812 21.39382362365723 9.429044723510742 21.61947250366211 C 9.662089347839355 21.84419059753418 9.933977127075195 22.01898193359375 10.24285316467285 22.14289474487305 C 10.55265045166016 22.26773834228516 10.88002586364746 22.33063316345215 11.2268123626709 22.33063316345215 C 11.57083320617676 22.33063316345215 11.89912986755371 22.26773834228516 12.20892810821533 22.14289474487305 C 12.51780414581299 22.01898193359375 12.79153537750244 21.84419059753418 13.02827739715576 21.61947250366211 C 13.2650203704834 21.39382362365723 13.45182704925537 21.12934112548828 13.588698387146 20.8232421875 C 13.72649097442627 20.51806449890137 13.79400444030762 20.1842155456543 13.79400444030762 19.82170486450195 C 13.79400444030762 19.46011734008789 13.72649097442627 19.12720108032227 13.588698387146 18.82108879089355 C 13.45182704925537 18.51591110229492 13.2650203704834 18.25143051147461 13.02827739715576 18.02579116821289 C 12.79153537750244 17.80106353759766 12.51780414581299 17.62628173828125 12.20892810821533 17.50051498413086 C 11.89912986755371 17.3765811920166 11.57083320617676 17.3137092590332 11.2268123626709 17.3137092590332 C 10.88002586364746 17.3137092590332 10.55265045166016 17.3765811920166 10.24285316467285 17.50051498413086 Z M 71.33188629150391 24.3679084777832 L 71.33188629150391 15.27641201019287 L 73.69469451904297 15.27641201019287 L 73.69469451904297 22.36668968200684 L 76.52914428710938 22.36668968200684 L 76.52914428710938 24.3679084777832 L 71.33188629150391 24.3679084777832 Z M 67.77518463134766 24.3679084777832 L 67.23326110839844 22.78746223449707 L 63.85689544677734 22.78746223449707 L 63.31405258178711 24.3679084777832 L 60.79495620727539 24.3679084777832 L 64.25455474853516 15.27641201019287 L 66.83560943603516 15.27641201019287 L 70.29613494873047 24.3679084777832 L 67.77518463134766 24.3679084777832 Z M 64.48297119140625 20.99154853820801 L 66.60626220703125 20.99154853820801 L 65.54462432861328 17.96567344665527 L 64.48297119140625 20.99154853820801 Z M 57.39361953735352 24.3679084777832 L 57.39361953735352 15.27641201019287 L 59.75643539428711 15.27641201019287 L 59.75643539428711 24.3679084777832 L 57.39361953735352 24.3679084777832 Z M 22.37964248657227 24.3679084777832 L 20.12411308288574 20.87224578857422 L 20.12411308288574 24.3679084777832 L 17.76037788391113 24.3679084777832 L 17.76037788391113 15.27734470367432 L 21.43822288513184 15.27734470367432 C 21.94500541687012 15.27734470367432 22.38612174987793 15.35132122039795 22.76436042785645 15.50021743774414 C 23.14258766174316 15.64817142486572 23.4542350769043 15.85162353515625 23.69930458068848 16.10870933532715 C 23.94437599182129 16.36672782897949 24.12932777404785 16.66357803344727 24.25324630737305 17.00113487243652 C 24.37901878356934 17.33867073059082 24.44005393981934 17.70026016235352 24.44005393981934 18.08682060241699 C 24.44005393981934 18.77854919433594 24.27359008789062 19.33804702758789 23.93975067138672 19.76899337768555 C 23.60683441162109 20.19808387756348 23.11391639709473 20.49032592773438 22.46380043029785 20.64290809631348 L 25.32136535644531 24.3679084777832 L 22.37964248657227 24.3679084777832 Z M 20.12411308288574 19.33990287780762 L 20.56985473632812 19.33990287780762 C 21.03593826293945 19.33990287780762 21.39383316040039 19.24371719360352 21.64351844787598 19.05136871337891 C 21.89228820800781 18.85808944702148 22.01713180541992 18.58064842224121 22.01713180541992 18.21906089782715 C 22.01713180541992 17.85747337341309 21.89228820800781 17.58003425598145 21.64351844787598 17.38676452636719 C 21.39383316040039 17.19348335266113 21.03593826293945 17.09823036193848 20.56985473632812 17.09823036193848 L 20.12411308288574 17.09823036193848 L 20.12411308288574 19.33990287780762 Z M 0 24.3679084777832 L 0 15.27641201019287 L 5.208350658416748 15.27641201019287 L 5.208350658416748 17.27763175964355 L 2.363729476928711 17.27763175964355 L 2.363729476928711 18.79796981811523 L 4.955884456634521 18.79796981811523 L 4.955884456634521 20.79919052124023 L 2.363729476928711 20.79919052124023 L 2.363729476928711 24.3679084777832 L 0 24.3679084777832 Z M 39.89218521118164 9.230212211608887 C 39.27812957763672 8.985151290893555 38.74914932250977 8.645750999450684 38.30711364746094 8.21110725402832 C 37.86507034301758 7.776464939117432 37.51919937133789 7.26875638961792 37.27043533325195 6.685216903686523 C 37.02074432373047 6.103531360626221 36.89590072631836 5.473753929138184 36.89590072631836 4.798670291900635 C 36.89590072631836 4.123587131500244 37.02074432373047 3.494741916656494 37.27043533325195 2.912124156951904 C 37.51919937133789 2.329517126083374 37.86507034301758 1.820886850357056 38.30711364746094 1.386243939399719 C 38.74914932250977 0.9525123238563538 39.27812957763672 0.6121999025344849 39.89218521118164 0.3671398460865021 C 40.50808715820312 0.1220691502094269 41.18502426147461 0 41.92484664916992 0 C 42.65542221069336 0 43.33050918579102 0.1220691502094269 43.95011138916016 0.3671398460865021 C 44.56879043579102 0.6121999025344849 45.10238265991211 0.9525123238563538 45.54813003540039 1.386243939399719 C 45.99386978149414 1.820886850357056 46.34159088134766 2.329517126083374 46.59128189086914 2.912124156951904 C 46.84004211425781 3.494741916656494 46.96488952636719 4.123587131500244 46.96488952636719 4.798670291900635 C 46.96488952636719 5.473753929138184 46.84004211425781 6.103531360626221 46.59128189086914 6.685216903686523 C 46.34159088134766 7.26875638961792 45.99386978149414 7.776464939117432 45.54813003540039 8.21110725402832 C 45.10238265991211 8.645750999450684 44.56879043579102 8.985151290893555 43.95011138916016 9.230212211608887 C 43.33050918579102 9.475282669067383 42.65542221069336 9.597352027893066 41.92484664916992 9.597352027893066 C 41.18502426147461 9.597352027893066 40.50808715820312 9.475282669067383 39.89218521118164 9.230212211608887 Z M 40.94180679321289 2.477470636367798 C 40.63200378417969 2.602326393127441 40.36104583740234 2.77710747718811 40.12800598144531 3.002746343612671 C 39.89495849609375 3.227473974227905 39.71000289916992 3.492887735366821 39.57313537597656 3.798065900802612 C 39.43626403808594 4.10415506362915 39.3687629699707 4.437082767486572 39.3687629699707 4.798670291900635 C 39.3687629699707 5.160258293151855 39.43626403808594 5.494097232818604 39.57313537597656 5.799285888671875 C 39.71000289916992 6.105385780334473 39.89495849609375 6.370799541473389 40.12800598144531 6.595516681671143 C 40.36104583740234 6.821166038513184 40.63200378417969 6.995014667510986 40.94180679321289 7.119870185852051 C 41.25068283081055 7.243782997131348 41.57897567749023 7.306677341461182 41.92484664916992 7.306677341461182 C 42.26886749267578 7.306677341461182 42.59808349609375 7.243782997131348 42.90695953369141 7.119870185852051 C 43.21676254272461 6.995014667510986 43.48957443237305 6.821166038513184 43.72724151611328 6.595516681671143 C 43.96398544311523 6.370799541473389 44.15078735351562 6.105385780334473 44.28765869140625 5.799285888671875 C 44.42452239990234 5.494097232818604 44.49295425415039 5.160258293151855 44.49295425415039 4.798670291900635 C 44.49295425415039 4.437082767486572 44.42452239990234 4.10415506362915 44.28765869140625 3.798065900802612 C 44.15078735351562 3.492887735366821 43.96398544311523 3.227473974227905 43.72724151611328 3.002746343612671 C 43.48957443237305 2.77710747718811 43.21676254272461 2.602326393127441 42.90695953369141 2.477470636367798 C 42.59808349609375 2.352636098861694 42.26886749267578 2.290663957595825 41.92484664916992 2.290663957595825 C 41.57897567749023 2.290663957595825 41.25068283081055 2.352636098861694 40.94180679321289 2.477470636367798 Z M 65.6417236328125 9.343963623046875 L 64.85750579833984 4.110639572143555 L 62.71109771728516 9.343963623046875 L 61.77059555053711 9.343963623046875 L 59.73331069946289 4.110639572143555 L 58.94910049438477 9.343963623046875 L 56.59831237792969 9.343963623046875 L 58.14176559448242 0.2524556517601013 L 60.48145294189453 0.2524556517601013 L 62.30234527587891 5.099229335784912 L 64.10935974121094 0.2524556517601013 L 66.44905853271484 0.2524556517601013 L 67.99251556396484 9.343963623046875 L 65.6417236328125 9.343963623046875 Z M 30.68693542480469 9.343963623046875 L 30.68693542480469 0.2524556517601013 L 35.89529037475586 0.2524556517601013 L 35.89529037475586 2.253686189651489 L 33.0488166809082 2.253686189651489 L 33.0488166809082 3.774014472961426 L 35.64282989501953 3.774014472961426 L 35.64282989501953 5.77524471282959 L 33.0488166809082 5.77524471282959 L 33.0488166809082 9.343963623046875 L 30.68693542480469 9.343963623046875 Z M 25.3333911895752 9.343963623046875 L 25.3333911895752 2.253686189651489 L 23.39228248596191 2.253686189651489 L 23.39228248596191 0.2524556517601013 L 29.63731002807617 0.2524556517601013 L 29.63731002807617 2.253686189651489 L 27.69619750976562 2.253686189651489 L 27.69619750976562 9.343963623046875 L 25.3333911895752 9.343963623046875 Z M 21.07663536071777 9.343963623046875 L 20.53379249572754 7.764439105987549 L 17.15834426879883 7.764439105987549 L 16.61457443237305 9.343963623046875 L 14.09548473358154 9.343963623046875 L 17.55600357055664 0.2524556517601013 L 20.13613891601562 0.2524556517601013 L 23.59665679931641 9.343963623046875 L 21.07663536071777 9.343963623046875 Z M 17.78534507751465 5.967593193054199 L 19.90678596496582 5.967593193054199 L 18.84514045715332 2.941717147827148 L 17.78534507751465 5.967593193054199 Z M 8.175041198730469 9.343963623046875 L 8.175041198730469 0.2524556517601013 L 10.5378589630127 0.2524556517601013 L 10.5378589630127 7.342732906341553 L 13.37137699127197 7.342732906341553 L 13.37137699127197 9.343963623046875 L 8.175041198730469 9.343963623046875 Z M 0 9.343963623046875 L 0 0.2524556517601013 L 3.761077404022217 0.2524556517601013 C 4.782957553863525 0.2524556517601013 5.56439733505249 0.5178694128990173 6.107239723205566 1.047775149345398 C 6.650082588195801 1.579513907432556 6.921048164367676 2.326741218566895 6.921048164367676 3.291279077529907 C 6.921048164367676 4.255827903747559 6.650082588195801 5.003044605255127 6.107239723205566 5.533872127532959 C 5.56439733505249 6.064699649810791 4.782957553863525 6.329180717468262 3.761077404022217 6.329180717468262 L 2.362807750701904 6.329180717468262 L 2.362807750701904 9.343963623046875 L 0 9.343963623046875 Z M 2.362807750701904 4.424135208129883 L 3.147023439407349 4.424135208129883 C 4.015387535095215 4.424135208129883 4.449108600616455 4.046834468841553 4.449108600616455 3.291279077529907 C 4.449108600616455 2.5357346534729 4.015387535095215 2.157501459121704 3.147023439407349 2.157501459121704 L 2.362807750701904 2.157501459121704 L 2.362807750701904 4.424135208129883 Z M 53.07768249511719 9.34303092956543 L 50.82214736938477 5.847367286682129 L 50.82214736938477 9.34303092956543 L 48.45933151245117 9.34303092956543 L 48.45933151245117 0.2524556517601013 L 52.13625717163086 0.2524556517601013 C 52.64303207397461 0.2524556517601013 53.08507537841797 0.3264430463314056 53.46331405639648 0.4753396511077881 C 53.84154891967773 0.6232932806015015 54.15227127075195 0.8267453908920288 54.39825820922852 1.083831191062927 C 54.64240264892578 1.341849446296692 54.82736206054688 1.638699650764465 54.95220184326172 1.977168440818787 C 55.07705307006836 2.313793659210205 55.13900756835938 2.675381422042847 55.13900756835938 3.06193208694458 C 55.13900756835938 3.753671407699585 54.97254943847656 4.313159465789795 54.63870620727539 4.744114875793457 C 54.30578231811523 5.173205852508545 53.8128776550293 5.465436458587646 53.16183471679688 5.618952751159668 L 56.0193977355957 9.34303092956543 L 53.07768249511719 9.34303092956543 Z M 50.82214736938477 4.315935134887695 L 51.26788711547852 4.315935134887695 C 51.73489761352539 4.315935134887695 52.09278869628906 4.218839645385742 52.34247970581055 4.026480674743652 C 52.5903205871582 3.834132432937622 52.71608734130859 3.556693077087402 52.71608734130859 3.194183349609375 C 52.71608734130859 2.832595348358154 52.5903205871582 2.555155992507935 52.34247970581055 2.361886024475098 C 52.09278869628906 2.169527292251587 51.73489761352539 2.073353052139282 51.26788711547852 2.073353052139282 L 50.82214736938477 2.073353052139282 L 50.82214736938477 4.315935134887695 Z" fill="#E79124" transform="translate(79.33,68.72)"/>
  <path d="M 18.31301879882812 98.56846618652344 C 18.33428382873535 98.71088409423828 18.35925674438477 98.85329437255859 18.3962516784668 98.99478149414062 C 18.8299674987793 100.6344146728516 17.85155868530273 102.3156661987305 16.21191596984863 102.7493896484375 C 15.94835758209229 102.8178253173828 15.6847972869873 102.8511123657227 15.42493534088135 102.8520355224609 C 14.0645866394043 102.8520355224609 12.82075500488281 101.9411315917969 12.45732402801514 100.5641403198242 C 11.52236747741699 97.02685546875 12.54518032073975 93.22509002685547 15.12900733947754 90.64034271240234 C 17.71283912658691 88.05742645263672 21.51552581787109 87.03369903564453 25.05373382568359 87.96772766113281 C 26.69244003295898 88.40236663818359 27.67085647583008 90.0836181640625 27.23713111877441 91.72325134277344 C 26.80341529846191 93.36380767822266 25.12309074401855 94.34037780761719 23.48160552978516 93.90757751464844 C 23.35398483276367 93.87336730957031 23.22359275817871 93.85393524169922 23.09504890441895 93.83174896240234 C 23.19307327270508 93.92052459716797 23.29572486877441 94.00190734863281 23.3845043182373 94.10456085205078 C 27.67363357543945 99.02622985839844 33.874267578125 101.8495788574219 40.39303970336914 101.8495788574219 C 48.3951416015625 101.8495788574219 55.87197875976562 97.54287719726562 59.90586853027344 90.60981750488281 C 60.84359359741211 88.99700164794922 62.91232299804688 88.4486083984375 64.52513885498047 89.38818359375 C 66.13887786865234 90.32591247558594 66.6854248046875 92.39463806152344 65.74677276611328 94.00745391845703 C 60.50789642333984 103.0129470825195 50.79217147827148 108.60693359375 40.39303970336914 108.60693359375 C 31.93131065368652 108.60693359375 23.88573455810547 104.9475860595703 18.31301879882812 98.56846618652344 Z M 40.18403244018555 89.76457214355469 C 38.22257232666016 89.76457214355469 36.63196182250977 88.1739501953125 36.63196182250977 86.21064758300781 L 36.63196182250977 34.77537155151367 C 36.63196182250977 32.81299591064453 38.22257232666016 31.22329902648926 40.18403244018555 31.22329902648926 L 48.97128677368164 31.22329902648926 L 28.58638572692871 8.986995697021484 L 8.205193519592285 31.22329902648926 L 16.99243545532227 31.22329902648926 C 18.9548168182373 31.22329902648926 20.54450798034668 32.81299591064453 20.54450798034668 34.77537155151367 L 20.54450798034668 72.77730560302734 L 21.91317939758301 72.77730560302734 C 23.87463569641113 72.77730560302734 25.46525764465332 74.36792755126953 25.46525764465332 76.32938385009766 C 25.46525764465332 78.29084014892578 23.87463569641113 79.88146209716797 21.91317939758301 79.88146209716797 L 16.99243545532227 79.88146209716797 C 15.03097915649414 79.88146209716797 13.44036102294922 78.29084014892578 13.44036102294922 76.32938385009766 L 13.44036102294922 38.32652282714844 L 6.24096155166626 38.32652282714844 C 3.76624584197998 38.32652282714844 1.525507211685181 36.86445999145508 0.5286003947257996 34.59967041015625 C -0.4683170914649963 32.33673095703125 -0.03182002156972885 29.69464111328125 1.64111328125 27.87097930908203 L 25.96834182739258 1.330756068229675 C 26.2485466003418 1.023723721504211 26.58053588867188 0.775887668132782 26.94120788574219 0.5863048434257507 C 27.50254440307617 0.2163890451192856 28.17208671569824 0 28.89433479309082 0 L 69.06488037109375 0 C 91.81813049316406 0 103.7228164672852 15.19596099853516 103.7228164672852 30.20697021484375 C 103.7228164672852 45.21890640258789 91.81813049316406 60.41486740112305 69.06488037109375 60.41486740112305 C 67.38825988769531 60.41486740112305 66.02420806884766 61.77891540527344 66.02420806884766 63.45646286010742 L 66.02420806884766 76.32938385009766 C 66.02420806884766 78.29084014892578 64.43358612060547 79.88146209716797 62.47212600708008 79.88146209716797 L 58.150634765625 79.88146209716797 C 56.18917846679688 79.88146209716797 54.59856033325195 78.29084014892578 54.59856033325195 76.32938385009766 C 54.59856033325195 74.36700439453125 56.18917846679688 72.77730560302734 58.150634765625 72.77730560302734 L 58.9200553894043 72.77730560302734 L 58.9200553894043 63.45646286010742 C 58.9200553894043 57.86154937744141 63.47089004516602 53.31071853637695 69.06488037109375 53.31071853637695 C 77.58856201171875 53.31071853637695 84.74542999267578 50.80456924438477 89.76234436035156 46.06137084960938 C 94.1837158203125 41.88137817382812 96.61773681640625 36.25132751464844 96.61773681640625 30.20697021484375 C 96.61773681640625 24.16446685791016 94.1837158203125 18.53441047668457 89.76234436035156 14.35348224639893 C 84.74542999267578 9.611221313476562 77.58856201171875 7.104146957397461 69.06488037109375 7.104146957397461 L 36.49786758422852 7.104146957397461 L 55.53536224365234 27.87097930908203 C 57.20736312866211 29.69371032714844 57.64385986328125 32.33581161499023 56.64694595336914 34.59967041015625 C 55.65188217163086 36.86445999145508 53.40929412841797 38.32652282714844 50.93643951416016 38.32652282714844 L 43.73610687255859 38.32652282714844 L 43.73610687255859 82.65949249267578 L 46.81192398071289 82.65949249267578 C 48.77338027954102 82.65949249267578 50.36307525634766 84.24919128417969 50.36307525634766 86.21064758300781 C 50.36307525634766 88.1739501953125 48.77338027954102 89.76457214355469 46.81192398071289 89.76457214355469 L 40.18403244018555 89.76457214355469 Z" fill="#FFFFFF" transform="translate(-0.00,0.00)"/>
</svg>